<?xml version="1.0" encoding="utf-8"?>
<!-- Generator: Adobe Illustrator 27.2.0, SVG Export Plug-In . SVG Version: 6.00 Build 0)  -->
<svg version="1.1" id="Layer_1" xmlns="http://www.w3.org/2000/svg" xmlns:xlink="http://www.w3.org/1999/xlink" x="0px" y="0px"
	 viewBox="0 0 331.6 59.45" style="enable-background:new 0 0 331.6 59.45;" xml:space="preserve">
<style type="text/css">
	.st0{fill:#FFFFFF;}
</style>
<g>
	<path class="st0" d="M14.73,14.55h9.19v5.24c0.74-1.76,1.75-3.18,3.03-4.23c1.28-1.06,3.01-1.54,5.2-1.44v9.62h-0.77
		c-2.41,0-4.25,0.71-5.53,2.12c-1.28,1.41-1.92,3.62-1.92,6.64v8.08h-9.19V14.55z"/>
	<path class="st0" d="M42.78,41.15c-1.25,0-2.41-0.18-3.46-0.53c-1.06-0.35-1.98-0.87-2.77-1.54c-0.79-0.67-1.4-1.51-1.85-2.5
		c-0.45-0.99-0.67-2.15-0.67-3.46v-0.1c0-1.35,0.25-2.53,0.75-3.56c0.5-1.03,1.19-1.88,2.07-2.55c0.88-0.67,1.95-1.19,3.2-1.54
		c1.25-0.35,2.65-0.53,4.19-0.53c1.22,0,2.38,0.1,3.49,0.31c1.11,0.21,2.03,0.44,2.77,0.7v-0.43c0-1.35-0.43-2.39-1.27-3.13
		c-0.85-0.74-2.16-1.11-3.92-1.11c-1.38,0-2.63,0.13-3.75,0.38c-1.12,0.26-2.26,0.61-3.42,1.06l-1.88-6.45
		c1.48-0.61,3.04-1.1,4.69-1.47c1.65-0.37,3.6-0.55,5.85-0.55c2.34,0,4.32,0.27,5.94,0.82c1.62,0.55,2.94,1.33,3.97,2.36
		c0.99,0.96,1.71,2.12,2.14,3.49c0.43,1.36,0.65,2.96,0.65,4.79v14.96h-9.04v-2.69c-0.9,0.99-1.96,1.79-3.2,2.38
		C46,40.85,44.51,41.15,42.78,41.15z M46.05,35.42c1.35,0,2.44-0.38,3.27-1.15c0.83-0.77,1.25-1.81,1.25-3.13v-1.2
		c-0.45-0.19-0.99-0.35-1.61-0.48c-0.63-0.13-1.27-0.19-1.95-0.19c-1.35,0-2.38,0.3-3.1,0.89c-0.72,0.59-1.08,1.37-1.08,2.33v0.1
		c0,0.9,0.3,1.6,0.91,2.09C44.35,35.18,45.12,35.42,46.05,35.42z"/>
	<path class="st0" d="M64.14,14.55h9.19v3.66c0.41-0.54,0.87-1.07,1.38-1.59c0.51-0.51,1.08-0.96,1.71-1.35s1.33-0.7,2.09-0.94
		c0.76-0.24,1.6-0.36,2.52-0.36c2.81,0,4.99,0.85,6.55,2.55c1.56,1.7,2.35,4.04,2.35,7.02v17.03h-9.19v-14.1
		c0-1.44-0.33-2.53-1-3.27c-0.67-0.74-1.54-1.11-2.61-1.11c-1.11,0-2.02,0.37-2.73,1.11c-0.71,0.74-1.07,1.83-1.07,3.27v14.1h-9.19
		V14.55z"/>
	<path class="st0" d="M107.44,48.37c-2.53,0-4.87-0.26-7-0.77c-2.13-0.51-4.15-1.25-6.04-2.21l2.94-6.06
		c1.41,0.77,2.84,1.37,4.28,1.8c1.44,0.43,3.05,0.65,4.81,0.65c2.31,0,4.02-0.55,5.15-1.64c1.12-1.09,1.68-2.68,1.68-4.76v-1.01
		c-0.93,1.06-2.02,1.97-3.27,2.74c-1.25,0.77-2.84,1.15-4.76,1.15c-1.6,0-3.1-0.28-4.5-0.84c-1.4-0.56-2.61-1.36-3.66-2.41
		c-1.04-1.04-1.87-2.31-2.48-3.8c-0.61-1.49-0.91-3.17-0.91-5.03v-0.1c0-1.86,0.3-3.54,0.91-5.05c0.61-1.51,1.43-2.78,2.45-3.82
		c1.03-1.04,2.22-1.84,3.58-2.41c1.36-0.56,2.8-0.84,4.31-0.84c1.96,0,3.56,0.35,4.81,1.06c1.25,0.71,2.37,1.57,3.37,2.6v-3.08h9.14
		v19.77c0,2.41-0.27,4.45-0.82,6.13c-0.55,1.68-1.4,3.1-2.55,4.26c-1.19,1.19-2.71,2.09-4.57,2.72
		C112.46,48.05,110.16,48.37,107.44,48.37z M107.97,31.24c1.54,0,2.81-0.48,3.8-1.44c0.99-0.96,1.49-2.17,1.49-3.61v-0.1
		c0-1.44-0.5-2.64-1.49-3.58c-0.99-0.95-2.26-1.42-3.8-1.42c-1.57,0-2.85,0.48-3.85,1.44c-0.99,0.96-1.49,2.17-1.49,3.61v0.1
		c0,1.44,0.5,2.64,1.49,3.58C105.11,30.77,106.4,31.24,107.97,31.24z"/>
	<path class="st0" d="M140.06,41.2c-2.05,0-3.93-0.33-5.63-0.99c-1.7-0.66-3.17-1.57-4.4-2.74c-1.23-1.17-2.2-2.59-2.89-4.26
		c-0.69-1.67-1.03-3.51-1.03-5.53v-0.1c0-1.89,0.32-3.66,0.96-5.32c0.64-1.65,1.55-3.09,2.72-4.33c1.17-1.23,2.56-2.2,4.16-2.91
		c1.6-0.71,3.37-1.06,5.29-1.06c2.24,0,4.19,0.38,5.85,1.15c1.65,0.77,3.01,1.8,4.09,3.1c1.07,1.3,1.88,2.81,2.41,4.52
		c0.53,1.72,0.79,3.54,0.79,5.46c0,0.29,0,0.59,0,0.91c0,0.32-0.02,0.64-0.05,0.96h-17.42c0.35,1.44,1.02,2.52,2,3.22
		c0.98,0.71,2.19,1.06,3.63,1.06c1.09,0,2.09-0.21,3.01-0.63c0.91-0.42,1.84-1.09,2.77-2.02l5.05,4.19c-1.25,1.6-2.8,2.89-4.64,3.85
		C144.88,40.72,142.65,41.2,140.06,41.2z M143.81,25.42c-0.16-1.44-0.64-2.59-1.44-3.44c-0.8-0.85-1.83-1.27-3.08-1.27
		c-1.22,0-2.21,0.43-2.98,1.27c-0.77,0.85-1.28,2-1.54,3.44H143.81z"/>
	<path class="st0" d="M156.27,14.55h9.19v5.24c0.74-1.76,1.75-3.18,3.03-4.23c1.28-1.06,3.01-1.54,5.2-1.44v9.62h-0.77
		c-2.41,0-4.25,0.71-5.53,2.12c-1.28,1.41-1.92,3.62-1.92,6.64v8.08h-9.19V14.55z"/>
	<path class="st0" d="M187.2,41.15c-2.21,0-4.36-0.31-6.45-0.94c-2.08-0.63-4.04-1.6-5.87-2.91l3.42-5.53
		c1.51,0.99,3.04,1.74,4.59,2.24c1.56,0.5,3.01,0.75,4.35,0.75c1.54,0,2.31-0.46,2.31-1.4v-0.1c0-0.51-0.35-0.91-1.06-1.2
		c-0.71-0.29-1.75-0.62-3.13-1.01c-1.28-0.32-2.49-0.7-3.61-1.13s-2.1-0.96-2.93-1.59c-0.83-0.62-1.49-1.39-1.97-2.29
		c-0.48-0.9-0.72-2-0.72-3.32v-0.1c0-1.38,0.26-2.61,0.79-3.68c0.53-1.07,1.26-1.97,2.19-2.69c0.93-0.72,2.03-1.27,3.3-1.66
		c1.27-0.39,2.65-0.58,4.16-0.58c1.92,0,3.82,0.26,5.68,0.79c1.86,0.53,3.54,1.27,5.05,2.24l-3.13,5.77
		c-1.35-0.74-2.71-1.32-4.09-1.76c-1.38-0.43-2.58-0.65-3.61-0.65c-0.71,0-1.23,0.12-1.59,0.36c-0.35,0.24-0.53,0.54-0.53,0.89v0.1
		c0,0.51,0.36,0.92,1.08,1.23c0.72,0.31,1.77,0.67,3.15,1.08c1.28,0.35,2.49,0.75,3.61,1.18c1.12,0.43,2.1,0.96,2.93,1.59
		c0.83,0.63,1.49,1.39,1.97,2.29c0.48,0.9,0.72,1.97,0.72,3.22v0.1c0,1.44-0.26,2.7-0.77,3.78c-0.51,1.08-1.23,1.98-2.16,2.72
		c-0.93,0.74-2.05,1.29-3.37,1.66C190.22,40.97,188.77,41.15,187.2,41.15z"/>
	<path class="st0" d="M201.2,31.19h9.53v9.38h-9.53V31.19z"/>
	<path class="st0" d="M227.81,41.2c-1.96,0-3.77-0.36-5.44-1.08c-1.67-0.72-3.1-1.69-4.31-2.91c-1.2-1.22-2.15-2.65-2.84-4.31
		c-0.69-1.65-1.03-3.39-1.03-5.22v-0.1c0-1.83,0.34-3.57,1.03-5.22c0.69-1.65,1.64-3.09,2.86-4.33c1.22-1.23,2.69-2.21,4.4-2.93
		c1.71-0.72,3.6-1.08,5.65-1.08c2.69,0,4.94,0.53,6.74,1.59c1.8,1.06,3.25,2.47,4.38,4.23l-6.21,4.62
		c-0.64-0.87-1.33-1.54-2.07-2.02c-0.74-0.48-1.67-0.72-2.79-0.72c-0.74,0-1.42,0.15-2.04,0.46c-0.63,0.31-1.16,0.72-1.61,1.25
		c-0.45,0.53-0.8,1.14-1.06,1.83c-0.26,0.69-0.38,1.44-0.38,2.24v0.1c0,0.83,0.13,1.61,0.38,2.33c0.26,0.72,0.61,1.35,1.06,1.88
		c0.45,0.53,0.99,0.95,1.64,1.25c0.64,0.31,1.35,0.46,2.12,0.46c1.09,0,2.01-0.24,2.77-0.72c0.75-0.48,1.5-1.14,2.24-1.97l6.11,4.43
		c-1.22,1.8-2.74,3.24-4.57,4.33S230.66,41.2,227.81,41.2z"/>
	<path class="st0" d="M255.9,41.2c-2.08,0-4-0.35-5.75-1.06s-3.26-1.68-4.55-2.91c-1.28-1.23-2.28-2.67-2.98-4.31
		c-0.71-1.64-1.06-3.38-1.06-5.24v-0.1c0-1.86,0.36-3.62,1.08-5.27c0.72-1.65,1.72-3.09,3.01-4.33c1.28-1.23,2.81-2.21,4.57-2.93
		s3.69-1.08,5.77-1.08c2.08,0,4,0.36,5.75,1.08s3.26,1.69,4.55,2.91c1.28,1.22,2.28,2.65,2.98,4.28c0.71,1.64,1.06,3.38,1.06,5.24
		v0.1c0,1.86-0.36,3.62-1.08,5.27c-0.72,1.65-1.72,3.1-3.01,4.33c-1.28,1.23-2.81,2.21-4.57,2.93S257.99,41.2,255.9,41.2z M256,33.4
		c0.83,0,1.59-0.15,2.26-0.45c0.67-0.3,1.24-0.72,1.71-1.24c0.46-0.52,0.83-1.14,1.08-1.84c0.26-0.7,0.38-1.43,0.38-2.19v-0.1
		c0-0.8-0.14-1.54-0.41-2.24s-0.66-1.31-1.15-1.84c-0.5-0.52-1.08-0.95-1.76-1.26c-0.67-0.32-1.41-0.48-2.21-0.48
		c-0.83,0-1.59,0.15-2.26,0.45s-1.24,0.72-1.71,1.24c-0.46,0.52-0.83,1.14-1.08,1.84c-0.26,0.7-0.38,1.43-0.38,2.19v0.1
		c0,0.8,0.14,1.54,0.41,2.24s0.66,1.31,1.16,1.84c0.5,0.52,1.08,0.95,1.76,1.26C254.46,33.25,255.2,33.4,256,33.4z"/>
	<path class="st0" d="M274.18,14.55h9.19v3.56c0.83-1.09,1.88-2.05,3.13-2.89c1.25-0.83,2.79-1.25,4.62-1.25
		c1.73,0,3.24,0.37,4.52,1.11c1.28,0.74,2.28,1.78,2.98,3.13c1.12-1.31,2.37-2.35,3.75-3.1c1.38-0.75,3.03-1.13,4.96-1.13
		c2.79,0,4.97,0.83,6.55,2.48c1.57,1.65,2.36,4,2.36,7.05v17.08h-9.19V26.43c0-1.44-0.32-2.53-0.96-3.25s-1.5-1.08-2.58-1.08
		s-1.98,0.36-2.68,1.08c-0.7,0.72-1.05,1.8-1.05,3.25v14.14h-9.19V26.43c0-1.44-0.32-2.53-0.96-3.25c-0.64-0.72-1.5-1.08-2.58-1.08
		s-1.97,0.36-2.65,1.08c-0.69,0.72-1.03,1.8-1.03,3.25v14.14h-9.19V14.55z"/>
</g>
</svg>
